<?xml version="1.0" encoding="UTF-8" standalone="no"?>
<!DOCTYPE svg PUBLIC "-//W3C//DTD SVG 1.1//EN"
 "http://www.w3.org/Graphics/SVG/1.1/DTD/svg11.dtd">
<!-- Generated by graphviz version 2.40.1 (20161225.0304)
 -->
<!-- Title: dependencies Pages: 1 -->
<svg width="504pt" height="211pt"
 viewBox="0.00 0.00 504.00 211.00" xmlns="http://www.w3.org/2000/svg" xmlns:xlink="http://www.w3.org/1999/xlink">
<g id="graph0" class="graph" transform="scale(1 1) rotate(0) translate(4 207)">
<title>dependencies</title>
<polygon fill="#ffffff" stroke="transparent" points="-4,4 -4,-207 500,-207 500,4 -4,4"/>
<text text-anchor="start" x="227.0091" y="-42.4" font-family="sans-serif" font-weight="bold" font-size="14.00" fill="#000000">Legend</text>
<polygon fill="#ffffb3" stroke="transparent" points="14,-10 14,-30 34,-30 34,-10 14,-10"/>
<text text-anchor="start" x="37.629" y="-15.4" font-family="sans-serif" font-size="14.00" fill="#000000"> &#160;Declarations</text>
<polygon fill="#8dd3c7" stroke="transparent" points="127,-10 127,-30 147,-30 147,-10 127,-10"/>
<text text-anchor="start" x="150.7251" y="-15.4" font-family="sans-serif" font-size="14.00" fill="#000000"> &#160;Module</text>
<polygon fill="#80b1d3" stroke="transparent" points="213,-10 213,-30 233,-30 233,-10 213,-10"/>
<text text-anchor="start" x="236.7812" y="-15.4" font-family="sans-serif" font-size="14.00" fill="#000000"> &#160;Bootstrap</text>
<polygon fill="#fdb462" stroke="transparent" points="310,-10 310,-30 330,-30 330,-10 310,-10"/>
<text text-anchor="start" x="333.6732" y="-15.4" font-family="sans-serif" font-size="14.00" fill="#000000"> &#160;Providers</text>
<polygon fill="#fb8072" stroke="transparent" points="406,-10 406,-30 426,-30 426,-10 406,-10"/>
<text text-anchor="start" x="429.7258" y="-15.4" font-family="sans-serif" font-size="14.00" fill="#000000"> &#160;Exports</text>
<g id="clust1" class="cluster">
<title>cluster_FinanceiroModule</title>
<polygon fill="none" stroke="#000000" stroke-dasharray="1,5" points="9,-70 9,-195 487,-195 487,-70 9,-70"/>
</g>
<g id="clust2" class="cluster">
<title>cluster_FinanceiroModule_declarations</title>
<polygon fill="none" stroke="#000000" points="321,-78 321,-130 479,-130 479,-78 321,-78"/>
</g>
<g id="clust4" class="cluster">
<title>cluster_FinanceiroModule_imports</title>
<polygon fill="none" stroke="#000000" points="17,-78 17,-130 313,-130 313,-78 17,-78"/>
</g>
<!-- FinanceiroComponent -->
<g id="node1" class="node">
<title>FinanceiroComponent</title>
<polygon fill="#ffffb3" stroke="#000000" points="470.7007,-122 329.2993,-122 329.2993,-86 470.7007,-86 470.7007,-122"/>
<text text-anchor="middle" x="400" y="-99.8" font-family="Times,serif" font-size="14.00" fill="#000000">FinanceiroComponent</text>
</g>
<!-- FinanceiroModule -->
<g id="node2" class="node">
<title>FinanceiroModule</title>
<polygon fill="#8dd3c7" stroke="#000000" points="282.9187,-187 279.9187,-191 258.9187,-191 255.9187,-187 163.0813,-187 163.0813,-151 282.9187,-151 282.9187,-187"/>
<text text-anchor="middle" x="223" y="-164.8" font-family="Times,serif" font-size="14.00" fill="#000000">FinanceiroModule</text>
</g>
<!-- FinanceiroComponent&#45;&gt;FinanceiroModule -->
<g id="edge1" class="edge">
<title>FinanceiroComponent&#45;&gt;FinanceiroModule</title>
<path fill="none" stroke="#000000" d="M400,-122.1061C400,-141.3391 400,-169 400,-169 400,-169 292.9241,-169 292.9241,-169"/>
<polygon fill="#000000" stroke="#000000" points="292.9242,-165.5001 282.9241,-169 292.9241,-172.5001 292.9242,-165.5001"/>
</g>
<!-- FinanceiroRoutingModule -->
<g id="node3" class="node">
<title>FinanceiroRoutingModule</title>
<polygon fill="#8dd3c7" stroke="#000000" points="305.0365,-122 302.0365,-126 281.0365,-126 278.0365,-122 140.9635,-122 140.9635,-86 305.0365,-86 305.0365,-122"/>
<text text-anchor="middle" x="223" y="-99.8" font-family="Times,serif" font-size="14.00" fill="#000000">FinanceiroRoutingModule</text>
</g>
<!-- FinanceiroRoutingModule&#45;&gt;FinanceiroModule -->
<g id="edge2" class="edge">
<title>FinanceiroRoutingModule&#45;&gt;FinanceiroModule</title>
<path fill="none" stroke="#000000" d="M223,-122.1061C223,-122.1061 223,-140.991 223,-140.991"/>
<polygon fill="#000000" stroke="#000000" points="219.5001,-140.9909 223,-150.991 226.5001,-140.991 219.5001,-140.9909"/>
</g>
<!-- SharedModule -->
<g id="node4" class="node">
<title>SharedModule</title>
<polygon fill="#8dd3c7" stroke="#000000" points="123.4231,-122 120.4231,-126 99.4231,-126 96.4231,-122 24.5769,-122 24.5769,-86 123.4231,-86 123.4231,-122"/>
<text text-anchor="middle" x="74" y="-99.8" font-family="Times,serif" font-size="14.00" fill="#000000">SharedModule</text>
</g>
<!-- SharedModule&#45;&gt;FinanceiroModule -->
<g id="edge3" class="edge">
<title>SharedModule&#45;&gt;FinanceiroModule</title>
<path fill="none" stroke="#000000" d="M74,-122.1061C74,-141.3391 74,-169 74,-169 74,-169 153.2545,-169 153.2545,-169"/>
<polygon fill="#000000" stroke="#000000" points="153.2546,-172.5001 163.2545,-169 153.2545,-165.5001 153.2546,-172.5001"/>
</g>
</g>
</svg>
