<?xml version="1.0" encoding="UTF-8" standalone="no"?>
<!DOCTYPE svg PUBLIC "-//W3C//DTD SVG 1.1//EN"
 "http://www.w3.org/Graphics/SVG/1.1/DTD/svg11.dtd">
<!-- Generated by graphviz version 2.40.1 (20161225.0304)
 -->
<!-- Title: dependencies Pages: 1 -->
<svg width="854pt" height="428pt"
 viewBox="0.00 0.00 854.00 428.00" xmlns="http://www.w3.org/2000/svg" xmlns:xlink="http://www.w3.org/1999/xlink">
<g id="graph0" class="graph" transform="scale(1 1) rotate(0) translate(4 424)">
<title>dependencies</title>
<polygon fill="#ffffff" stroke="transparent" points="-4,4 -4,-424 850,-424 850,4 -4,4"/>
<text text-anchor="start" x="402.0091" y="-42.4" font-family="sans-serif" font-weight="bold" font-size="14.00" fill="#000000">Legend</text>
<polygon fill="#ffffb3" stroke="transparent" points="189,-10 189,-30 209,-30 209,-10 189,-10"/>
<text text-anchor="start" x="212.629" y="-15.4" font-family="sans-serif" font-size="14.00" fill="#000000"> &#160;Declarations</text>
<polygon fill="#8dd3c7" stroke="transparent" points="302,-10 302,-30 322,-30 322,-10 302,-10"/>
<text text-anchor="start" x="325.7251" y="-15.4" font-family="sans-serif" font-size="14.00" fill="#000000"> &#160;Module</text>
<polygon fill="#80b1d3" stroke="transparent" points="388,-10 388,-30 408,-30 408,-10 388,-10"/>
<text text-anchor="start" x="411.7812" y="-15.4" font-family="sans-serif" font-size="14.00" fill="#000000"> &#160;Bootstrap</text>
<polygon fill="#fdb462" stroke="transparent" points="485,-10 485,-30 505,-30 505,-10 485,-10"/>
<text text-anchor="start" x="508.6732" y="-15.4" font-family="sans-serif" font-size="14.00" fill="#000000"> &#160;Providers</text>
<polygon fill="#fb8072" stroke="transparent" points="581,-10 581,-30 601,-30 601,-10 581,-10"/>
<text text-anchor="start" x="604.7258" y="-15.4" font-family="sans-serif" font-size="14.00" fill="#000000"> &#160;Exports</text>
<g id="clust1" class="cluster">
<title>cluster_AppModule</title>
<polygon fill="none" stroke="#000000" stroke-dasharray="1,5" points="8,-146 8,-412 520,-412 520,-146 8,-146"/>
</g>
<g id="clust2" class="cluster">
<title>cluster_AppModule_declarations</title>
<polygon fill="none" stroke="#000000" points="390,-222 390,-274 512,-274 512,-222 390,-222"/>
</g>
<g id="clust4" class="cluster">
<title>cluster_AppModule_imports</title>
<polygon fill="none" stroke="#000000" points="16,-154 16,-274 382,-274 382,-154 16,-154"/>
</g>
<g id="clust6" class="cluster">
<title>cluster_AppModule_bootstrap</title>
<polygon fill="none" stroke="#000000" points="199,-352 199,-404 323,-404 323,-352 199,-352"/>
</g>
<g id="clust20" class="cluster">
<title>cluster_HomeModule</title>
<polygon fill="none" stroke="#000000" stroke-dasharray="1,5" points="528,-146 528,-214 838,-214 838,-146 528,-146"/>
</g>
<g id="clust21" class="cluster">
<title>cluster_HomeModule_declarations</title>
<polygon fill="none" stroke="#000000" points="698,-154 698,-206 830,-206 830,-154 698,-154"/>
</g>
<g id="clust23" class="cluster">
<title>cluster_HomeModule_imports</title>
<polygon fill="none" stroke="#000000" points="536,-154 536,-206 690,-206 690,-154 536,-154"/>
</g>
<g id="clust33" class="cluster">
<title>cluster_SharedModule</title>
<polygon fill="none" stroke="#000000" stroke-dasharray="1,5" points="76,-70 76,-138 564,-138 564,-70 76,-70"/>
</g>
<g id="clust34" class="cluster">
<title>cluster_SharedModule_declarations</title>
<polygon fill="none" stroke="#000000" points="234,-78 234,-130 556,-130 556,-78 234,-78"/>
</g>
<g id="clust38" class="cluster">
<title>cluster_SharedModule_exports</title>
<polygon fill="none" stroke="#000000" points="84,-78 84,-130 226,-130 226,-78 84,-78"/>
</g>
<!-- AppComponent -->
<g id="node1" class="node">
<title>AppComponent</title>
<polygon fill="#ffffb3" stroke="#000000" points="503.9399,-266 398.0601,-266 398.0601,-230 503.9399,-230 503.9399,-266"/>
<text text-anchor="middle" x="451" y="-243.8" font-family="Times,serif" font-size="14.00" fill="#000000">AppComponent</text>
</g>
<!-- AppModule -->
<g id="node2" class="node">
<title>AppModule</title>
<polygon fill="#8dd3c7" stroke="#000000" points="302.6571,-331 299.6571,-335 278.6571,-335 275.6571,-331 219.3429,-331 219.3429,-295 302.6571,-295 302.6571,-331"/>
<text text-anchor="middle" x="261" y="-308.8" font-family="Times,serif" font-size="14.00" fill="#000000">AppModule</text>
</g>
<!-- AppComponent&#45;&gt;AppModule -->
<g id="edge1" class="edge">
<title>AppComponent&#45;&gt;AppModule</title>
<path fill="none" stroke="#000000" d="M451,-266.1061C451,-285.3391 451,-313 451,-313 451,-313 312.6963,-313 312.6963,-313"/>
<polygon fill="#000000" stroke="#000000" points="312.6963,-309.5001 302.6963,-313 312.6963,-316.5001 312.6963,-309.5001"/>
</g>
<!-- AppComponent  -->
<g id="node7" class="node">
<title>AppComponent </title>
<polygon fill="#80b1d3" stroke="#000000" points="315.439,-396 206.561,-396 206.561,-360 315.439,-360 315.439,-396"/>
<text text-anchor="middle" x="261" y="-373.8" font-family="Times,serif" font-size="14.00" fill="#000000">AppComponent </text>
</g>
<!-- AppModule&#45;&gt;AppComponent  -->
<g id="edge6" class="edge">
<title>AppModule&#45;&gt;AppComponent </title>
<path fill="none" stroke="#000000" stroke-dasharray="1,5" d="M261,-331.1061C261,-331.1061 261,-349.991 261,-349.991"/>
<polygon fill="#000000" stroke="#000000" points="257.5001,-349.9909 261,-359.991 264.5001,-349.991 257.5001,-349.9909"/>
</g>
<!-- AppRoutingModule -->
<g id="node3" class="node">
<title>AppRoutingModule</title>
<polygon fill="#8dd3c7" stroke="#000000" points="152.2744,-198 149.2744,-202 128.2744,-202 125.2744,-198 23.7256,-198 23.7256,-162 152.2744,-162 152.2744,-198"/>
<text text-anchor="middle" x="88" y="-175.8" font-family="Times,serif" font-size="14.00" fill="#000000">AppRoutingModule</text>
</g>
<!-- AppRoutingModule&#45;&gt;AppModule -->
<g id="edge2" class="edge">
<title>AppRoutingModule&#45;&gt;AppModule</title>
<path fill="none" stroke="#000000" d="M88,-198.2142C88,-234.6396 88,-313 88,-313 88,-313 209.1215,-313 209.1215,-313"/>
<polygon fill="#000000" stroke="#000000" points="209.1216,-316.5001 219.1215,-313 209.1215,-309.5001 209.1216,-316.5001"/>
</g>
<!-- CoreModule -->
<g id="node4" class="node">
<title>CoreModule</title>
<polygon fill="#8dd3c7" stroke="#000000" points="257.2619,-198 254.2619,-202 233.2619,-202 230.2619,-198 170.7381,-198 170.7381,-162 257.2619,-162 257.2619,-198"/>
<text text-anchor="middle" x="214" y="-175.8" font-family="Times,serif" font-size="14.00" fill="#000000">CoreModule</text>
</g>
<!-- CoreModule&#45;&gt;AppModule -->
<g id="edge3" class="edge">
<title>CoreModule&#45;&gt;AppModule</title>
<path fill="none" stroke="#000000" d="M238.2763,-198.2142C238.2763,-198.2142 238.2763,-284.579 238.2763,-284.579"/>
<polygon fill="#000000" stroke="#000000" points="234.7764,-284.5789 238.2763,-294.579 241.7764,-284.579 234.7764,-284.5789"/>
</g>
<!-- HomeModule -->
<g id="node5" class="node">
<title>HomeModule</title>
<polygon fill="#8dd3c7" stroke="#000000" points="373.7619,-266 370.7619,-270 349.7619,-270 346.7619,-266 280.2381,-266 280.2381,-230 373.7619,-230 373.7619,-266"/>
<text text-anchor="middle" x="327" y="-243.8" font-family="Times,serif" font-size="14.00" fill="#000000">HomeModule</text>
</g>
<!-- HomeModule&#45;&gt;AppModule -->
<g id="edge4" class="edge">
<title>HomeModule&#45;&gt;AppModule</title>
<path fill="none" stroke="#000000" d="M291.4737,-266.1061C291.4737,-266.1061 291.4737,-284.991 291.4737,-284.991"/>
<polygon fill="#000000" stroke="#000000" points="287.9738,-284.9909 291.4737,-294.991 294.9738,-284.991 287.9738,-284.9909"/>
</g>
<!-- SharedModule -->
<g id="node6" class="node">
<title>SharedModule</title>
<polygon fill="#8dd3c7" stroke="#000000" points="374.4231,-198 371.4231,-202 350.4231,-202 347.4231,-198 275.5769,-198 275.5769,-162 374.4231,-162 374.4231,-198"/>
<text text-anchor="middle" x="325" y="-175.8" font-family="Times,serif" font-size="14.00" fill="#000000">SharedModule</text>
</g>
<!-- SharedModule&#45;&gt;AppModule -->
<g id="edge5" class="edge">
<title>SharedModule&#45;&gt;AppModule</title>
<path fill="none" stroke="#000000" d="M275.7122,-180C270.2358,-180 266.5849,-180 266.5849,-180 266.5849,-180 266.5849,-284.7858 266.5849,-284.7858"/>
<polygon fill="#000000" stroke="#000000" points="263.0849,-284.7858 266.5849,-294.7858 270.0849,-284.7858 263.0849,-284.7858"/>
</g>
<!-- SharedModule&#45;&gt;HomeModule -->
<g id="edge9" class="edge">
<title>SharedModule&#45;&gt;HomeModule</title>
<path fill="none" stroke="#000000" d="M311.3731,-198.2228C311.3731,-198.2228 311.3731,-219.7269 311.3731,-219.7269"/>
<polygon fill="#000000" stroke="#000000" points="307.8732,-219.7269 311.3731,-229.7269 314.8732,-219.727 307.8732,-219.7269"/>
</g>
<!-- WebviewDirective  -->
<g id="node12" class="node">
<title>WebviewDirective </title>
<polygon fill="#fb8072" stroke="#000000" points="217.724,-122 92.276,-122 92.276,-86 217.724,-86 217.724,-122"/>
<text text-anchor="middle" x="155" y="-99.8" font-family="Times,serif" font-size="14.00" fill="#000000">WebviewDirective </text>
</g>
<!-- SharedModule&#45;&gt;WebviewDirective  -->
<g id="edge12" class="edge">
<title>SharedModule&#45;&gt;WebviewDirective </title>
<path fill="none" stroke="#000000" stroke-dasharray="5,2" d="M308.5963,-161.8903C308.5963,-152.103 308.5963,-142 308.5963,-142 308.5963,-142 194.1155,-142 194.1155,-142 194.1155,-142 194.1155,-132.1097 194.1155,-132.1097"/>
<polygon fill="#000000" stroke="#000000" points="197.6156,-132.1096 194.1155,-122.1097 190.6156,-132.1097 197.6156,-132.1096"/>
</g>
<!-- HomeComponent -->
<g id="node8" class="node">
<title>HomeComponent</title>
<polygon fill="#ffffb3" stroke="#000000" points="821.5451,-198 706.4549,-198 706.4549,-162 821.5451,-162 821.5451,-198"/>
<text text-anchor="middle" x="764" y="-175.8" font-family="Times,serif" font-size="14.00" fill="#000000">HomeComponent</text>
</g>
<!-- HomeComponent&#45;&gt;HomeModule -->
<g id="edge7" class="edge">
<title>HomeComponent&#45;&gt;HomeModule</title>
<path fill="none" stroke="#000000" d="M764,-198.1944C764,-206.2782 764,-214 764,-214 764,-214 342.6269,-214 342.6269,-214 342.6269,-214 342.6269,-219.8056 342.6269,-219.8056"/>
<polygon fill="#000000" stroke="#000000" points="339.127,-219.8055 342.6269,-229.8056 346.127,-219.8056 339.127,-219.8055"/>
</g>
<!-- HomeRoutingModule -->
<g id="node9" class="node">
<title>HomeRoutingModule</title>
<polygon fill="#8dd3c7" stroke="#000000" points="682.3795,-198 679.3795,-202 658.3795,-202 655.3795,-198 543.6205,-198 543.6205,-162 682.3795,-162 682.3795,-198"/>
<text text-anchor="middle" x="613" y="-175.8" font-family="Times,serif" font-size="14.00" fill="#000000">HomeRoutingModule</text>
</g>
<!-- HomeRoutingModule&#45;&gt;HomeModule -->
<g id="edge8" class="edge">
<title>HomeRoutingModule&#45;&gt;HomeModule</title>
<path fill="none" stroke="#000000" d="M543.4253,-186C476.7699,-186 386.2458,-186 386.2458,-186 386.2458,-186 386.2458,-248 386.2458,-248 386.2458,-248 383.97,-248 383.97,-248"/>
<polygon fill="#000000" stroke="#000000" points="383.9701,-244.5001 373.97,-248 383.97,-251.5001 383.9701,-244.5001"/>
</g>
<!-- PageNotFoundComponent -->
<g id="node10" class="node">
<title>PageNotFoundComponent</title>
<polygon fill="#ffffb3" stroke="#000000" points="407.8243,-122 242.1757,-122 242.1757,-86 407.8243,-86 407.8243,-122"/>
<text text-anchor="middle" x="325" y="-99.8" font-family="Times,serif" font-size="14.00" fill="#000000">PageNotFoundComponent</text>
</g>
<!-- PageNotFoundComponent&#45;&gt;SharedModule -->
<g id="edge10" class="edge">
<title>PageNotFoundComponent&#45;&gt;SharedModule</title>
<path fill="none" stroke="#000000" d="M341.4037,-122.0109C341.4037,-122.0109 341.4037,-151.855 341.4037,-151.855"/>
<polygon fill="#000000" stroke="#000000" points="337.9038,-151.8549 341.4037,-161.855 344.9038,-151.855 337.9038,-151.8549"/>
</g>
<!-- WebviewDirective -->
<g id="node11" class="node">
<title>WebviewDirective</title>
<polygon fill="#ffffb3" stroke="#000000" points="547.7241,-122 426.2759,-122 426.2759,-86 547.7241,-86 547.7241,-122"/>
<text text-anchor="middle" x="487" y="-99.8" font-family="Times,serif" font-size="14.00" fill="#000000">WebviewDirective</text>
</g>
<!-- WebviewDirective&#45;&gt;SharedModule -->
<g id="edge11" class="edge">
<title>WebviewDirective&#45;&gt;SharedModule</title>
<path fill="none" stroke="#000000" d="M464.9288,-122.0267C464.9288,-142.7672 464.9288,-174 464.9288,-174 464.9288,-174 384.3337,-174 384.3337,-174"/>
<polygon fill="#000000" stroke="#000000" points="384.3337,-170.5001 374.3337,-174 384.3336,-177.5001 384.3337,-170.5001"/>
</g>
</g>
</svg>
